<svg xmlns="http://www.w3.org/2000/svg" width="84" height="84" viewBox="0 0 84 84" role="img" aria-label="Team Groom">
  <defs>
    <linearGradient id="bg2" x1="0" y1="0" x2="1" y2="1">
      <stop offset="0" stop-color="#8fae9b" stop-opacity="0.18"/>
      <stop offset="1" stop-color="#b07a8d" stop-opacity="0.18"/>
    </linearGradient>
  </defs>
  <rect x="1" y="1" width="82" height="82" rx="18" fill="url(#bg2)" stroke="#b07a8d" stroke-opacity="0.22"/>
  <path d="M42 18c9.4 0 17 7.6 17 17s-7.6 17-17 17-17-7.6-17-17 7.6-17 17-17z" fill="#8fae9b" fill-opacity="0.55"/>
  <path d="M30 55h24" stroke="#3d3a3b" stroke-opacity="0.55" stroke-width="4" stroke-linecap="round"/>
  <path d="M30 55c0 6 4.2 10.5 12 10.5S54 61 54 55" fill="none" stroke="#3d3a3b" stroke-opacity="0.55" stroke-width="4" stroke-linecap="round"/>
  <path d="M42 28l10 10-10 10-10-10z" fill="#b07a8d" fill-opacity="0.7"/>
  <path d="M42 30l8 8-8 8-8-8z" fill="#fff" fill-opacity="0.9"/>
  <path d="M42 46v14" stroke="#b07a8d" stroke-opacity="0.75" stroke-width="3" stroke-linecap="round"/>
</svg>

