<svg xmlns="http://www.w3.org/2000/svg" width="84" height="84" viewBox="0 0 84 84" role="img" aria-label="Team Bride">
  <defs>
    <linearGradient id="bg" x1="0" y1="0" x2="1" y2="1">
      <stop offset="0" stop-color="#b07a8d" stop-opacity="0.18"/>
      <stop offset="1" stop-color="#8fae9b" stop-opacity="0.18"/>
    </linearGradient>
  </defs>
  <rect x="1" y="1" width="82" height="82" rx="18" fill="url(#bg)" stroke="#8fae9b" stroke-opacity="0.22"/>
  <path d="M42 22c6.6 0 12 5.4 12 12 0 8.8-12 22-12 22S30 42.8 30 34c0-6.6 5.4-12 12-12z" fill="#b07a8d" fill-opacity="0.75"/>
  <path d="M42 30c2.6 0 4.8 2.2 4.8 4.8S44.6 39.6 42 39.6s-4.8-2.2-4.8-4.8S39.4 30 42 30z" fill="#fff" fill-opacity="0.9"/>
  <path d="M26 58c10-7 22-7 32 0" fill="none" stroke="#8fae9b" stroke-width="3" stroke-linecap="round" stroke-opacity="0.7"/>
  <path d="M30 60c3.8 4.6 8.4 6.9 12 6.9s8.2-2.3 12-6.9" fill="none" stroke="#b07a8d" stroke-width="3" stroke-linecap="round" stroke-opacity="0.7"/>
</svg>

